<?xml version="1.0" standalone="no"?>
<!DOCTYPE svg PUBLIC "-//W3C//DTD SVG 20010904//EN"
 "http://www.w3.org/TR/2001/REC-SVG-20010904/DTD/svg10.dtd">
<svg version="1.0" xmlns="http://www.w3.org/2000/svg"
 width="512.000000pt" height="512.000000pt" viewBox="0 0 512.000000 512.000000"
 preserveAspectRatio="xMidYMid meet">

<g transform="translate(0.000000,512.000000) scale(0.100000,-0.100000)"
fill="#000000" stroke="none">
<path d="M2395 4971 c-94 -26 -154 -53 -223 -100 -31 -22 -436 -420 -908 -893
l-851 -853 -41 -85 c-53 -108 -72 -191 -72 -311 -1 -441 401 -765 835 -674 39
8 113 36 165 61 92 46 103 55 332 282 l237 235 3 -974 c4 -1093 -3 -1002 80
-1161 78 -150 220 -273 387 -332 80 -29 95 -31 221 -31 122 0 143 3 215 28
178 63 319 186 401 351 76 155 74 124 74 1184 l0 936 223 -220 c122 -122 244
-236 270 -253 345 -232 809 -116 1002 250 50 96 75 201 75 318 0 120 -19 203
-72 311 l-41 85 -851 854 c-920 922 -925 927 -1080 977 -111 36 -279 43 -381
15z m285 -253 c109 -32 118 -41 981 -906 922 -923 877 -872 901 -1026 31 -198
-94 -399 -290 -467 -69 -24 -195 -27 -264 -5 -95 28 -143 69 -489 413 l-345
343 -45 0 c-49 0 -100 -26 -121 -62 -10 -18 -14 -247 -18 -1163 l-5 -1140 -32
-68 c-62 -130 -193 -227 -332 -247 -186 -26 -373 76 -454 247 l-32 68 -5 1140
c-4 916 -8 1145 -18 1163 -21 36 -72 62 -121 62 l-45 0 -345 -343 c-203 -202
-366 -355 -394 -371 -70 -41 -132 -57 -223 -57 -265 0 -470 239 -425 496 26
148 -16 100 905 1022 795 796 845 844 909 874 101 47 208 56 307 27z"/>
</g>
</svg>
