<?xml version="1.0" standalone="no"?>
<!DOCTYPE svg PUBLIC "-//W3C//DTD SVG 20010904//EN"
 "http://www.w3.org/TR/2001/REC-SVG-20010904/DTD/svg10.dtd">
<svg version="1.0" xmlns="http://www.w3.org/2000/svg"
 width="512.000000pt" height="416.000000pt" viewBox="0 0 512.000000 416.000000"
 preserveAspectRatio="xMidYMid meet">

<g transform="translate(0.000000,416.000000) scale(0.100000,-0.100000)"
fill="#000000" stroke="none">
<path d="M1130 4135 c-19 -7 -66 -31 -105 -54 l-70 -42 -115 7 c-112 6 -116 5
-170 -23 -44 -22 -65 -42 -103 -97 -68 -101 -79 -110 -178 -151 -50 -20 -103
-48 -119 -61 -42 -35 -67 -98 -80 -194 -13 -95 -21 -111 -96 -190 -98 -105
-109 -152 -66 -302 33 -114 33 -113 -8 -246 -16 -52 -20 -84 -15 -110 3 -20
10 -72 14 -114 15 -151 99 -228 247 -228 71 0 74 -1 74 -24 0 -49 49 -215 85
-287 77 -154 197 -286 331 -364 l64 -38 0 -152 c0 -168 -9 -209 -49 -230 -15
-7 -142 -59 -282 -115 -274 -109 -340 -146 -395 -221 -67 -91 -74 -129 -74
-389 0 -249 3 -268 55 -308 22 -18 25 -27 25 -86 0 -76 20 -106 70 -106 49 0
70 30 70 100 l0 61 128 -3 127 -3 5 -63 c4 -48 10 -67 24 -78 29 -21 70 -17
94 9 21 23 22 31 22 250 0 214 -1 228 -20 247 -25 25 -81 26 -103 2 -12 -13
-17 -43 -19 -117 l-3 -100 -165 0 -165 0 -3 184 c-3 224 7 270 72 335 34 35
69 53 187 100 l146 58 74 -40 c160 -87 376 -142 560 -142 198 0 358 37 538
126 l114 56 141 -56 c154 -61 203 -97 237 -171 16 -35 19 -68 19 -248 l0 -207
-162 2 -163 3 -5 103 c-4 88 -8 106 -24 118 -29 21 -80 18 -102 -7 -18 -19
-19 -39 -19 -251 0 -229 0 -230 24 -249 32 -26 73 -24 99 4 17 18 22 36 22 80
l0 57 124 0 123 0 6 -62 c6 -70 28 -98 76 -98 48 0 71 36 71 113 0 56 3 68 20
77 11 6 29 29 41 51 19 38 20 54 17 272 -4 272 -13 307 -100 403 -63 68 -95
84 -408 209 -161 64 -253 105 -267 122 -22 23 -23 32 -23 192 l0 168 77 48
c144 91 275 248 338 404 24 58 44 135 59 224 l7 37 72 0 c89 0 140 22 189 79
46 54 58 101 61 241 2 98 -2 126 -23 193 l-24 77 24 78 c32 102 37 189 14 237
-9 20 -48 70 -85 111 -38 42 -69 79 -69 83 0 51 -36 204 -55 237 -30 51 -56
69 -170 114 -88 35 -91 38 -138 105 -65 94 -94 124 -146 148 -39 17 -57 19
-155 13 -107 -6 -113 -6 -156 19 -151 86 -210 101 -290 70z m190 -181 c92 -53
136 -63 244 -57 117 8 126 4 177 -73 72 -111 90 -124 267 -199 24 -10 48 -27
53 -37 6 -10 17 -59 25 -109 18 -112 36 -147 119 -238 36 -39 65 -79 65 -89 0
-9 -12 -53 -26 -97 -28 -87 -33 -172 -14 -230 7 -20 10 -37 8 -38 -1 -2 -63 0
-136 3 -131 5 -134 6 -158 33 -22 26 -24 36 -24 139 0 61 -6 129 -12 152 -16
54 -93 131 -144 145 -26 7 -219 11 -564 11 -581 0 -567 1 -634 -66 -52 -52
-66 -97 -66 -217 0 -125 -13 -168 -56 -185 -16 -6 -83 -12 -150 -14 l-121 -3
14 44 c19 66 16 131 -12 218 -14 43 -25 90 -25 104 0 18 22 50 75 108 81 90
91 113 113 255 7 42 18 76 29 87 10 9 56 32 102 50 98 37 138 71 209 174 l47
70 130 1 c141 0 146 2 292 83 62 35 71 33 173 -25z m424 -853 c24 -23 26 -31
26 -116 0 -175 29 -250 117 -302 44 -26 58 -28 180 -33 122 -5 133 -7 157 -29
36 -34 36 -88 0 -122 -22 -20 -38 -25 -113 -29 -137 -9 -159 -33 -194 -218
-68 -360 -433 -622 -798 -572 -170 23 -319 100 -435 223 -113 120 -171 240
-195 401 -18 122 -67 166 -184 166 -78 0 -117 17 -135 60 -10 24 -10 36 0 59
19 47 62 61 184 61 120 0 161 12 215 63 57 54 71 97 71 224 0 67 5 123 12 139
24 53 31 54 570 51 l496 -2 26 -24z m-701 -1556 c97 -19 239 -19 332 -1 39 8
73 11 77 8 4 -4 8 -79 10 -167 l3 -160 33 -47 c25 -37 48 -55 104 -82 l72 -35
-49 -21 c-257 -110 -586 -110 -835 1 l-45 21 60 27 c70 32 129 93 144 148 6
21 11 102 11 181 0 78 1 142 3 142 1 0 37 -7 80 -15z"/>
<path d="M842 2694 c-20 -13 -22 -24 -22 -93 0 -89 14 -111 68 -111 53 0 72
28 72 110 0 57 -4 74 -20 90 -24 24 -67 26 -98 4z"/>
<path d="M1482 2694 c-20 -13 -22 -24 -22 -93 0 -89 14 -111 68 -111 53 0 72
28 72 110 0 57 -4 74 -20 90 -24 24 -67 26 -98 4z"/>
<path d="M975 2200 c-23 -26 -24 -74 -1 -99 9 -10 45 -32 79 -47 54 -26 74
-29 157 -29 82 0 103 4 151 26 71 33 99 61 99 97 0 73 -61 92 -145 45 -37 -20
-62 -26 -106 -26 -43 0 -71 6 -109 26 -62 32 -100 34 -125 7z"/>
<path d="M3449 4060 c-340 -58 -616 -262 -764 -565 -99 -202 -114 -301 -115
-760 0 -165 -5 -328 -10 -363 -15 -92 -55 -209 -92 -271 -60 -97 -58 -91 -47
-166 18 -138 117 -283 236 -347 57 -31 151 -58 203 -58 30 0 44 -9 90 -56 98
-99 205 -144 342 -144 l78 0 0 -28 c0 -17 -10 -38 -23 -50 -13 -13 -147 -72
-297 -132 -150 -60 -291 -122 -313 -137 -55 -38 -111 -112 -138 -180 -19 -50
-23 -83 -27 -245 -6 -243 0 -289 43 -336 29 -33 33 -45 37 -106 3 -57 8 -72
27 -87 60 -49 121 -5 121 87 l0 54 124 0 124 0 4 -61 c4 -49 9 -66 27 -80 34
-28 75 -24 100 7 20 25 21 39 21 250 0 211 -1 225 -20 244 -27 27 -81 26 -106
-1 -15 -17 -20 -40 -22 -120 l-4 -99 -161 2 -162 3 0 210 c0 196 1 213 22 250
24 46 65 86 108 108 17 8 115 49 219 90 l188 76 166 -111 c209 -140 247 -158
333 -158 37 0 85 6 107 14 22 8 121 69 220 135 l180 120 188 -75 c236 -95 254
-104 297 -154 51 -61 58 -99 55 -315 l-3 -190 -162 -3 -163 -2 0 90 c0 120
-15 150 -77 150 -22 0 -38 -8 -52 -26 -20 -25 -21 -39 -21 -246 l0 -219 25
-24 c31 -32 69 -32 100 0 21 20 25 34 25 80 l0 55 125 0 125 0 0 -55 c0 -46 4
-60 25 -80 31 -32 69 -32 100 0 21 20 25 33 25 88 0 56 3 66 26 88 49 44 54
73 54 283 0 107 -5 219 -11 248 -24 110 -96 212 -186 260 -26 15 -163 72 -303
128 -264 104 -300 126 -300 176 0 23 2 24 79 24 139 0 286 65 361 161 28 35
37 39 75 39 62 0 163 34 231 78 116 75 191 200 209 346 7 54 6 58 -35 121 -51
78 -95 202 -109 308 -6 43 -11 217 -11 385 0 410 -12 500 -90 683 -134 314
-426 544 -769 604 -91 16 -565 20 -652 5z m660 -154 c309 -67 563 -297 659
-596 34 -105 42 -174 42 -354 l0 -171 -112 3 c-152 4 -173 8 -198 39 -16 21
-20 38 -18 77 l3 51 55 7 c90 13 124 69 77 124 l-24 27 -114 -11 c-206 -22
-302 -24 -433 -13 -368 32 -652 143 -869 340 -76 69 -103 76 -144 35 -20 -20
-24 -31 -19 -57 7 -36 22 -54 98 -118 l57 -47 -33 -26 c-60 -46 -80 -103 -84
-249 -4 -127 -4 -127 -34 -152 -27 -23 -37 -25 -133 -25 -56 0 -117 -3 -134
-6 l-31 -6 0 164 c0 103 6 198 15 253 68 385 389 682 785 725 122 14 504 4
589 -14z m-701 -805 c201 -101 491 -161 776 -161 l143 0 6 -67 c8 -82 43 -143
106 -188 41 -29 48 -30 174 -35 77 -3 141 -11 154 -18 48 -27 57 -85 20 -128
-22 -25 -32 -28 -114 -34 -138 -10 -164 -34 -189 -175 -25 -142 -62 -228 -148
-344 -87 -116 -251 -221 -401 -257 -91 -22 -249 -22 -340 0 -287 69 -513 324
-550 618 -14 114 -58 150 -188 159 -82 5 -92 7 -113 33 -26 29 -31 65 -13 98
18 34 70 48 184 48 149 0 214 33 261 135 21 43 24 66 24 163 0 123 6 144 48
166 42 24 96 19 160 -13z m-594 -770 l79 -6 19 -94 c37 -183 121 -336 256
-462 43 -41 106 -90 140 -109 l61 -35 1 -71 0 -71 -45 -6 c-120 -17 -226 35
-321 158 l-31 40 -81 1 c-70 1 -90 5 -146 33 -70 34 -123 87 -154 155 -36 76
-36 99 -2 152 40 64 86 184 101 268 10 54 15 65 28 60 9 -4 52 -10 95 -13z
m2033 -73 c14 -59 41 -131 74 -196 51 -101 51 -104 40 -145 -29 -99 -93 -171
-190 -215 -43 -20 -72 -25 -134 -26 -87 -1 -72 8 -153 -93 -59 -72 -182 -120
-279 -106 l-45 6 0 67 0 67 78 50 c206 135 346 348 386 586 l12 72 81 5 c45 3
85 8 89 13 15 15 20 5 41 -85z m-1217 -719 c82 -13 226 -11 305 6 38 8 71 15
72 15 2 0 3 -60 3 -133 0 -153 15 -219 60 -271 17 -18 30 -36 30 -40 0 -12
-264 -179 -298 -188 -18 -5 -48 -6 -65 -3 -32 7 -307 181 -307 195 0 4 9 15
21 26 12 10 31 37 42 59 19 35 22 60 25 198 l4 159 26 -7 c15 -4 52 -11 82
-16z"/>
<path d="M3394 2689 c-15 -16 -19 -36 -19 -89 0 -81 19 -110 71 -110 49 0 74
37 74 110 0 43 -5 64 -21 84 -26 33 -77 36 -105 5z"/>
<path d="M4031 2684 c-16 -20 -21 -41 -21 -84 0 -73 25 -110 75 -110 50 0 75
37 75 110 0 73 -25 110 -75 110 -24 0 -39 -7 -54 -26z"/>
<path d="M3536 2204 c-48 -48 -23 -102 70 -149 54 -27 68 -30 159 -30 83 0
108 4 150 23 97 45 131 106 85 152 -27 27 -68 25 -125 -7 -67 -37 -143 -37
-214 0 -60 30 -102 34 -125 11z"/>
</g>
</svg>
