<?xml version="1.0" standalone="no"?>
<!DOCTYPE svg PUBLIC "-//W3C//DTD SVG 20010904//EN"
 "http://www.w3.org/TR/2001/REC-SVG-20010904/DTD/svg10.dtd">
<svg version="1.0" xmlns="http://www.w3.org/2000/svg"
 width="512.000000pt" height="512.000000pt" viewBox="0 0 512.000000 512.000000"
 preserveAspectRatio="xMidYMid meet">

<g transform="translate(0.000000,512.000000) scale(0.100000,-0.100000)"
fill="#ff7b1f" stroke="none">
<path d="M1300 4787 c-49 -16 -133 -102 -148 -153 -7 -23 -12 -85 -12 -138 l0
-96 998 0 c642 0 1020 -4 1061 -11 162 -26 286 -138 326 -296 14 -53 15 -144
13 -685 l-3 -623 -23 -58 c-33 -81 -116 -168 -200 -209 l-67 -33 -1052 -3
-1053 -2 0 -977 c0 -737 3 -986 12 -1017 16 -55 99 -138 154 -154 32 -9 345
-12 1318 -12 l1276 0 -181 241 c-99 133 -189 260 -200 283 -51 113 3 248 121
303 l60 28 0 389 c0 276 4 401 12 430 17 58 99 138 158 155 33 9 117 11 298 9
l252 -3 0 1219 c0 928 -3 1229 -12 1260 -16 55 -99 138 -154 154 -56 16 -2901
16 -2954 -1z"/>
<path d="M677 4226 c-65 -18 -116 -61 -150 -126 l-28 -55 3 -621 3 -621 30
-49 c19 -30 49 -60 79 -79 l49 -30 1265 -3 1265 -2 53 24 c59 27 107 84 124
147 7 25 10 253 8 646 l-3 608 -28 48 c-35 60 -93 102 -158 116 -78 17 -2449
14 -2512 -3z m627 -326 c66 -25 135 -95 161 -163 13 -35 16 -65 13 -121 -6
-86 -35 -145 -95 -195 -60 -50 -110 -61 -265 -61 l-138 0 0 -170 c0 -185 -6
-212 -51 -231 -34 -14 -84 2 -99 32 -6 10 -10 192 -10 449 l0 431 25 24 c24
25 26 25 214 25 167 0 197 -3 245 -20z m773 5 c60 -18 135 -80 166 -139 21
-40 22 -51 22 -331 l0 -290 -27 -47 c-16 -25 -46 -62 -68 -81 -67 -57 -117
-67 -327 -67 -182 0 -184 0 -208 25 l-25 24 0 436 0 436 25 24 c24 25 26 25
208 25 134 0 197 -4 234 -15z m958 -10 c16 -15 25 -36 25 -55 0 -19 -9 -40
-25 -55 l-24 -25 -224 0 c-196 0 -226 -2 -231 -16 -3 -9 -6 -62 -6 -119 l0
-104 206 -3 206 -3 24 -28 c29 -34 31 -66 3 -100 l-20 -27 -207 -2 -207 -3 -3
-182 -2 -182 -27 -20 c-34 -28 -66 -26 -100 3 l-28 24 0 384 c0 210 3 395 8
410 10 37 65 98 102 114 22 10 94 13 268 14 l238 0 24 -25z"/>
<path d="M980 3640 l0 -120 136 0 136 0 34 34 c29 29 34 41 34 80 0 27 -7 58
-16 72 -30 45 -62 54 -199 54 l-125 0 0 -120z"/>
<path d="M1770 3435 l0 -325 121 0 c135 0 174 11 202 59 15 25 17 61 17 266 0
263 -3 280 -64 309 -26 12 -64 16 -155 16 l-121 0 0 -325z"/>
<path d="M3885 1975 l-25 -24 0 -471 0 -470 -79 0 c-74 0 -81 -2 -100 -26 -24
-30 -26 -55 -10 -87 7 -11 104 -144 217 -294 209 -279 222 -293 276 -279 16 4
87 91 228 279 113 150 210 283 217 294 16 32 14 57 -10 87 -19 24 -26 26 -100
26 l-79 0 0 470 0 471 -25 24 -24 25 -231 0 -231 0 -24 -25z"/>
</g>
</svg>
