<?xml version="1.0" standalone="no"?>
<!DOCTYPE svg PUBLIC "-//W3C//DTD SVG 20010904//EN"
 "http://www.w3.org/TR/2001/REC-SVG-20010904/DTD/svg10.dtd">
<svg version="1.0" xmlns="http://www.w3.org/2000/svg"
 width="50.000000pt" height="50.000000pt" viewBox="0 0 50.000000 50.000000"
 preserveAspectRatio="xMidYMid meet">

<g transform="translate(0.000000,50.000000) scale(0.100000,-0.100000)"
fill="black" stroke="none">
<path d="M60 250 l0 -250 190 0 190 0 0 177 0 178 -72 72 -72 73 -118 0 -118
0 0 -250z m220 160 l0 -70 70 0 70 0 0 -160 0 -160 -170 0 -170 0 0 230 0 230
100 0 100 0 0 -70z m75 0 l49 -50 -52 0 -52 0 0 50 c0 28 1 50 3 50 1 0 25
-22 52 -50z"/>
<path d="M150 196 c0 -31 5 -56 10 -56 6 0 10 9 10 20 0 10 9 24 21 30 30 17
22 54 -13 58 -28 3 -28 2 -28 -52z m40 24 c0 -11 -4 -20 -10 -20 -5 0 -10 9
-10 20 0 11 5 20 10 20 6 0 10 -9 10 -20z"/>
<path d="M230 194 c0 -52 2 -55 22 -52 48 7 51 108 3 108 -24 0 -25 -3 -25
-56z m35 6 c0 -18 -6 -35 -12 -37 -9 -3 -13 8 -13 37 0 29 4 40 13 38 6 -3 12
-20 12 -38z"/>
<path d="M311 193 c1 -32 4 -46 6 -30 3 17 11 27 21 27 16 1 15 1 0 11 -10 5
-18 16 -18 24 0 7 8 16 18 18 13 4 11 5 -5 6 -22 1 -23 -3 -22 -56z"/>
</g>
</svg>
