<svg version="1.1" xmlns="http://www.w3.org/2000/svg" xmlns:xlink="http://www.w3.org/1999/xlink" width="512.000000pt" height="512.000000pt" viewBox="0,0,256,256"><g fill="#ed5d0e" fill-rule="nonzero" stroke="none" stroke-width="1" stroke-linecap="butt" stroke-linejoin="miter" stroke-miterlimit="10" stroke-dasharray="" stroke-dashoffset="0" font-family="none" font-weight="none" font-size="none" text-anchor="none" style="mix-blend-mode: normal"><g transform="translate(-0.0982,0.06715) scale(0.5,0.5)"><g transform="translate(0,512) scale(0.1,-0.1)"><path d="M879,5106c-42,-15 -81,-43 -111,-81c-49,-62 -48,-38 -48,-1297v-1178h-113c-78,0 -128,-5 -161,-16c-64,-22 -147,-100 -177,-166l-24,-53v-800v-800l24,-50c32,-63 92,-124 156,-155l50,-25h1315c1264,0 1316,1 1350,19c49,26 88,64 113,111c22,40 22,47 25,629c2,394 -1,606 -8,641c-15,70 -59,128 -122,159l-52,26h-1270c-897,0 -1283,3 -1311,11c-113,32 -161,172 -88,259c42,51 71,60 188,60h105v-49c0,-90 75,-136 130,-81c20,20 20,33 20,1331v1311l29,29l29,29h1461h1460l3,-392c3,-388 3,-393 25,-424c45,-63 51,-64 472,-64h381v-1941v-1941l-29,-29l-29,-29h-1872h-1872l-29,29c-19,20 -29,40 -29,60c0,35 -39,71 -77,71c-31,0 -73,-42 -73,-73c0,-80 58,-173 133,-214c30,-17 141,-18 1947,-18c1806,0 1917,1 1947,18c18,9 48,33 67,53c71,73 66,-92 64,2149c-3,1946 -4,2021 -22,2055c-25,48 -762,786 -811,813l-40,22l-1545,2c-1252,2 -1552,0 -1581,-11zM4355,4590l350,-350h-353h-352v350c0,193 1,350 3,350c1,0 160,-157 352,-350zM1781,1922l1296,-2l24,-26l24,-26v-595v-595l-28,-24l-28,-24h-1273h-1273l-43,23c-30,16 -51,37 -67,67l-23,43v603v603l48,-22l47,-22z"></path><path d="M902,1647c-22,-23 -22,-28 -22,-371v-347l26,-26c20,-20 31,-24 57,-19c57,11 67,34 67,161v113l88,4c104,5 151,26 209,92c114,130 69,324 -92,397c-32,15 -66,19 -176,19c-129,0 -137,-1 -157,-23zM1189,1506c57,-30 68,-107 22,-158c-27,-30 -34,-33 -105,-36l-76,-4v106v106h65c38,0 78,-6 94,-14z"></path><path d="M2315,1645l-25,-24v-343c1,-367 1,-367 51,-387c30,-11 83,8 93,34c3,9 6,77 6,151v134h95c90,0 98,2 122,26c20,20 24,31 19,57c-11,54 -26,62 -136,65l-100,4v79v79h105c99,0 107,2 130,25c14,13 25,36 25,50c0,14 -11,37 -25,50c-24,24 -28,25 -180,25c-152,0 -156,-1 -180,-25z"></path><path d="M1574,1639c-18,-20 -19,-41 -19,-361v-340l29,-25c29,-25 32,-25 160,-21c162,5 212,24 285,104c75,81 95,143 95,284c0,143 -22,208 -97,287c-73,78 -122,93 -296,93c-128,0 -139,-2 -157,-21zM1891,1487c50,-34 81,-97 87,-177c7,-99 -12,-163 -62,-215c-44,-46 -88,-60 -171,-53l-40,3l-3,233l-2,232h78c66,0 85,-4 113,-23z"></path><path d="M2638,4290c-51,-15 -94,-49 -118,-92c-21,-36 -25,-56 -25,-123c1,-98 27,-188 98,-338l50,-108l-17,-57c-33,-105 -146,-383 -207,-506l-61,-122l-86,-29c-132,-45 -289,-127 -356,-187c-100,-89 -130,-189 -83,-278c33,-63 86,-102 146,-108c125,-12 267,115 427,383c55,93 57,94 110,110c140,41 413,92 581,110l62,7l72,-63c194,-166 342,-221 456,-170c75,34 133,142 118,220c-10,52 -77,115 -145,135c-85,26 -173,36 -316,36h-131l-60,68c-159,180 -348,451 -340,487c3,11 17,70 31,130c35,146 44,301 23,375c-31,105 -121,153 -229,120zM2724,4134c10,-26 6,-145 -8,-214l-12,-65l-17,39c-24,55 -47,147 -47,189c0,26 6,40 22,51c29,20 54,20 62,0zM2837,3334c34,-49 92,-124 128,-166c60,-72 63,-78 42,-82c-12,-3 -69,-12 -127,-21c-58,-9 -154,-26 -213,-39c-70,-15 -107,-20 -103,-12c2,6 33,79 69,161c36,83 75,181 88,218c28,78 15,84 116,-59zM3529,2949c35,-5 79,-16 98,-24c34,-14 34,-14 18,-45c-13,-24 -22,-30 -49,-30c-36,0 -134,46 -181,84l-30,25l40,1c22,0 69,-5 104,-11zM2198,2678c-57,-82 -151,-176 -184,-184c-30,-8 -54,14 -54,50c0,31 79,98 176,149c49,25 93,46 97,47c5,0 -11,-28 -35,-62z"></path></g></g></g></svg>