<?xml version="1.0" standalone="no"?>
<!DOCTYPE svg PUBLIC "-//W3C//DTD SVG 20010904//EN"
 "http://www.w3.org/TR/2001/REC-SVG-20010904/DTD/svg10.dtd">
<svg version="1.0" xmlns="http://www.w3.org/2000/svg"
 width="512.000000pt" height="345.000000pt" viewBox="0 0 512.000000 345.000000"
 preserveAspectRatio="xMidYMid meet">

<g transform="translate(0.000000,345.000000) scale(0.100000,-0.100000)"
fill="#000000" stroke="none">
<path d="M3560 3438 c-244 -13 -425 -83 -543 -208 -49 -52 -76 -71 -114 -84
-153 -51 -275 -190 -319 -366 -21 -83 -14 -235 16 -338 28 -98 92 -227 157
-313 l53 -70 0 -145 c0 -165 16 -261 62 -371 30 -75 106 -190 152 -232 26 -24
26 -26 26 -173 0 -112 -4 -156 -15 -178 -13 -25 -36 -35 -244 -105 -262 -87
-285 -103 -256 -172 21 -49 52 -49 190 -3 65 22 126 40 135 40 9 0 32 -16 51
-36 51 -53 195 -146 283 -183 152 -63 213 -75 406 -75 153 -1 186 2 260 22
153 42 318 131 435 235 l49 44 158 -53 c193 -64 262 -100 331 -173 102 -106
137 -205 137 -383 l0 -118 76 0 77 0 -6 133 c-3 72 -13 159 -22 192 -47 176
-168 324 -330 403 -33 16 -172 66 -310 112 -172 57 -258 90 -275 106 -24 24
-25 30 -28 173 l-4 149 54 65 c75 92 116 163 151 264 25 74 31 112 39 243 9
135 13 161 35 200 135 248 205 480 205 684 0 200 -56 341 -187 471 -189 188
-471 266 -885 243z m350 -153 c438 -66 642 -324 566 -717 -18 -91 -64 -238
-75 -238 -5 0 -11 20 -13 45 -13 110 -103 225 -223 282 -123 58 -166 63 -595
63 -385 0 -385 0 -436 -24 -28 -13 -63 -39 -78 -59 -27 -35 -86 -194 -86 -231
0 -28 39 -66 67 -66 45 0 61 18 88 102 18 56 36 92 56 111 l29 27 358 0 c386
0 446 -6 539 -53 61 -31 118 -93 133 -144 8 -26 10 -136 8 -353 l-4 -315 -31
-82 c-40 -106 -88 -176 -173 -256 -196 -186 -479 -227 -725 -106 -153 75 -278
219 -331 382 -24 74 -27 100 -32 274 l-4 192 -55 68 c-30 37 -76 113 -103 168
-111 227 -103 423 22 560 62 69 77 71 70 10 -9 -84 41 -141 101 -114 32 15 44
46 50 130 12 178 162 300 425 344 105 18 337 18 452 0z m-508 -2203 c46 -12
101 -17 203 -17 154 0 229 16 347 76 l58 29 0 -98 c0 -63 6 -115 16 -144 18
-54 66 -107 118 -132 20 -9 34 -21 31 -27 -10 -16 -116 -84 -182 -118 -34 -17
-102 -43 -150 -58 -78 -23 -104 -26 -238 -27 -124 0 -164 4 -229 22 -98 27
-222 87 -299 144 l-58 42 45 23 c53 27 99 80 115 132 6 21 11 84 11 139 l0
101 75 -35 c41 -19 102 -42 137 -52z"/>
<path d="M3230 2138 c-16 -17 -20 -35 -20 -88 0 -57 3 -70 23 -88 29 -27 71
-28 97 -2 16 16 20 33 20 90 0 57 -4 74 -20 90 -27 27 -74 26 -100 -2z"/>
<path d="M3871 2134 c-16 -20 -21 -41 -21 -84 0 -70 25 -110 71 -110 51 0 69
29 69 114 0 66 -3 77 -22 90 -34 24 -73 20 -97 -10z"/>
<path d="M3390 1690 c-44 -44 -10 -107 71 -132 66 -20 233 -17 297 5 29 10 57
27 62 37 16 30 12 76 -10 95 -20 18 -26 18 -153 -6 -60 -12 -76 -11 -135 4
-86 22 -107 22 -132 -3z"/>
<path d="M1059 3261 c-367 -80 -669 -362 -773 -724 -42 -145 -47 -254 -44
-908 3 -580 4 -608 22 -628 19 -20 27 -21 318 -21 279 0 298 -1 298 -18 0 -45
-27 -59 -247 -132 -120 -40 -245 -86 -278 -102 -162 -79 -283 -227 -330 -403
-9 -33 -19 -120 -22 -192 l-6 -133 75 0 76 0 4 142 c3 141 4 144 40 221 68
142 169 225 352 287 l84 28 43 -62 c129 -184 518 -516 605 -516 86 0 453 308
593 498 30 39 59 72 65 72 6 0 53 -14 104 -31 160 -53 255 -132 318 -264 42
-87 54 -150 54 -276 l0 -99 71 0 71 0 -4 148 c-5 129 -9 156 -33 222 -60 163
-174 290 -320 360 -44 21 -171 68 -282 105 -159 52 -207 72 -223 92 -42 54
-45 53 280 53 289 0 301 1 320 20 21 21 21 27 17 718 -3 674 -4 700 -24 777
-52 194 -146 357 -285 491 -136 132 -263 206 -443 260 -123 36 -364 44 -496
15z m449 -151 c318 -90 543 -321 635 -649 20 -73 21 -100 25 -708 l3 -633
-250 0 -251 0 0 29 c0 22 9 35 41 57 54 37 136 128 178 198 18 31 47 95 64
143 30 85 31 95 35 289 5 228 -1 253 -72 332 -103 114 -409 276 -789 419 -148
55 -190 63 -217 38 -23 -21 -27 -72 -7 -98 6 -9 56 -32 111 -52 294 -106 607
-254 728 -345 109 -82 111 -90 106 -293 -5 -151 -9 -181 -31 -246 -141 -404
-644 -521 -942 -218 -76 78 -125 162 -150 262 -19 74 -21 384 -3 436 6 19 42
81 80 137 37 57 68 112 68 122 0 9 -10 29 -21 44 -17 22 -28 27 -58 24 -34 -3
-41 -10 -114 -118 -106 -156 -112 -180 -112 -410 1 -220 15 -298 78 -419 47
-91 115 -175 195 -241 38 -31 52 -49 50 -64 -3 -21 -8 -21 -251 -24 l-248 -2
3 647 c4 642 4 649 27 723 100 328 357 565 691 636 94 20 303 12 398 -16z
m-378 -2036 c113 -24 260 -16 383 22 15 5 17 -3 17 -83 0 -76 4 -97 26 -141
30 -61 82 -101 167 -128 31 -10 57 -20 57 -23 0 -9 -62 -86 -118 -145 -73 -80
-177 -172 -285 -253 l-99 -73 -51 37 c-95 67 -191 147 -270 222 -81 77 -177
191 -177 209 0 6 30 20 66 32 127 43 175 111 182 258 4 81 7 92 21 87 9 -4 45
-13 81 -21z"/>
<path d="M952 2064 c-20 -13 -22 -24 -22 -94 0 -70 2 -81 22 -94 63 -44 118 0
118 94 0 94 -55 138 -118 94z"/>
<path d="M1510 2060 c-16 -16 -20 -33 -20 -90 0 -80 19 -110 69 -110 47 0 71
39 71 115 0 51 -4 65 -23 83 -29 27 -71 28 -97 2z"/>
<path d="M1067 1613 c-20 -23 -22 -72 -4 -96 32 -44 209 -70 316 -47 106 22
149 67 123 125 -16 35 -54 40 -138 19 -66 -16 -82 -17 -142 -5 -124 24 -136
24 -155 4z"/>
</g>
</svg>
