<?xml version="1.0" standalone="no"?>
<!DOCTYPE svg PUBLIC "-//W3C//DTD SVG 20010904//EN"
 "http://www.w3.org/TR/2001/REC-SVG-20010904/DTD/svg10.dtd">
<svg version="1.0" xmlns="http://www.w3.org/2000/svg"
 width="512.000000pt" height="512.000000pt" viewBox="0 0 512.000000 512.000000"
 preserveAspectRatio="xMidYMid meet">

<g transform="translate(0.000000,512.000000) scale(0.100000,-0.100000)"
fill="#000000" stroke="none">
<path d="M920 5105 c-205 -41 -438 -186 -595 -372 -286 -335 -388 -750 -283
-1148 28 -105 64 -191 139 -333 453 -853 1077 -1619 1826 -2239 388 -322 858
-633 1286 -852 214 -109 340 -146 542 -157 345 -20 703 123 965 386 198 197
312 430 314 640 1 103 -13 152 -60 216 -45 61 -1081 872 -1178 923 -89 46
-168 52 -262 21 -66 -22 -76 -30 -245 -196 -104 -103 -191 -180 -212 -189 -47
-19 -137 -19 -185 1 -20 8 -50 28 -67 43 -16 15 -68 57 -115 91 -306 229 -644
568 -871 875 -24 33 -55 69 -68 79 -36 30 -71 113 -71 172 0 88 33 136 206
300 130 124 159 158 187 213 28 57 32 76 32 146 0 72 -3 87 -35 148 -20 39
-211 293 -458 610 -321 412 -435 551 -471 575 -86 59 -188 74 -321 47z m191
-239 c9 -6 202 -250 429 -541 227 -292 417 -536 423 -543 5 -7 11 -33 11 -57
1 -44 0 -44 -165 -212 -221 -225 -256 -290 -247 -467 7 -128 30 -180 150 -338
307 -403 584 -679 991 -988 171 -130 239 -160 369 -160 78 0 156 18 223 52 22
12 118 98 213 192 172 170 174 171 217 170 26 0 53 -8 68 -20 13 -10 261 -203
551 -427 600 -467 561 -425 533 -562 -50 -243 -264 -490 -541 -625 -176 -86
-352 -119 -533 -100 -160 17 -286 60 -488 168 -1227 658 -2241 1672 -2907
2907 -108 201 -151 327 -168 488 -19 181 14 357 100 533 85 176 215 326 373
431 153 102 331 146 398 99z"/>
</g>
</svg>
