<?xml version="1.0" standalone="no"?>
<!DOCTYPE svg PUBLIC "-//W3C//DTD SVG 20010904//EN"
 "http://www.w3.org/TR/2001/REC-SVG-20010904/DTD/svg10.dtd">
<svg version="1.0" xmlns="http://www.w3.org/2000/svg"
 width="512.000000pt" height="512.000000pt" viewBox="0 0 512.000000 512.000000"
 preserveAspectRatio="xMidYMid meet">

<g transform="translate(0.000000,512.000000) scale(0.100000,-0.100000)"
fill="#000000" stroke="none">
<path d="M1790 4236 c-392 -83 -688 -390 -750 -780 -19 -116 -8 -301 24 -409
62 -209 193 -392 369 -517 l47 -34 -82 -31 c-501 -190 -887 -646 -992 -1170
-21 -108 -39 -306 -28 -317 5 -5 53 -7 108 -6 l99 3 7 94 c30 430 259 824 613
1056 159 104 306 166 495 208 129 28 404 30 530 4 192 -41 360 -110 520 -215
104 -69 296 -259 363 -359 145 -218 226 -451 243 -696 l7 -97 103 0 104 0 0
69 c0 94 -16 204 -50 336 -123 489 -494 906 -967 1089 l-84 33 69 51 c420 312
505 919 187 1331 -90 117 -200 208 -332 275 -130 65 -228 88 -393 92 -97 2
-166 -1 -210 -10z m328 -212 c274 -56 488 -258 563 -530 28 -99 30 -256 6
-357 -52 -211 -198 -393 -392 -487 -108 -53 -187 -70 -325 -70 -193 0 -354 61
-491 188 -332 307 -314 827 38 1110 170 137 388 190 601 146z"/>
<path d="M3230 4148 l0 -105 71 -7 c274 -25 521 -236 595 -506 27 -99 25 -264
-5 -360 -37 -121 -87 -207 -171 -291 -115 -116 -262 -187 -422 -204 l-68 -7 0
-102 0 -102 118 -12 c271 -27 512 -125 712 -290 270 -223 445 -561 467 -899
l6 -103 110 0 109 0 -6 73 c-19 202 -46 327 -107 482 -146 376 -463 698 -828
842 l-94 38 39 30 c177 139 288 300 346 500 19 69 23 102 22 235 -1 138 -3
164 -27 243 -50 162 -124 284 -243 398 -83 79 -141 119 -237 165 -102 48 -197
74 -299 81 l-88 6 0 -105z"/>
</g>
</svg>
